<?xml version="1.0" standalone="no"?>
<!DOCTYPE svg PUBLIC "-//W3C//DTD SVG 20010904//EN"
 "http://www.w3.org/TR/2001/REC-SVG-20010904/DTD/svg10.dtd">
<svg version="1.0" xmlns="http://www.w3.org/2000/svg"
 width="1280.000000pt" height="697.000000pt" viewBox="0 0 1280.000000 697.000000"
 preserveAspectRatio="xMidYMid meet">
<metadata>
Created by potrace 1.15, written by Peter Selinger 2001-2017
</metadata>
<g transform="translate(0.000000,697.000000) scale(0.100000,-0.100000)"
fill="#1863ff" stroke="black"
                stroke-width="50">
<path d="M5170 6964 c-63 -13 -131 -37 -145 -50 -45 -45 4 -108 141 -183 205
-111 225 -136 232 -280 5 -118 -8 -188 -55 -284 -32 -66 -64 -100 -357 -393
-176 -176 -514 -497 -751 -714 -999 -914 -1349 -1276 -1738 -1798 -256 -343
-476 -792 -698 -1426 -46 -131 -115 -351 -138 -442 l-11 -41 -132 -6 c-286
-13 -580 -94 -893 -247 -232 -114 -444 -252 -565 -368 l-65 -63 35 6 c111 17
390 35 553 35 228 0 282 -10 507 -92 218 -80 246 -88 373 -98 96 -8 116 -13
190 -49 45 -22 114 -64 152 -92 82 -61 285 -263 334 -331 19 -27 38 -48 42
-48 25 0 75 64 114 144 122 251 139 600 41 820 -52 116 -159 236 -256 286 -14
7 -26 14 -28 15 -6 6 140 218 268 390 388 521 676 802 1140 1112 760 508 1857
902 2775 998 272 28 978 50 1985 61 539 6 1089 -5 1133 -22 34 -13 10 -28
-119 -80 -240 -95 -259 -120 -276 -352 -21 -292 -48 -340 -342 -596 -187 -163
-236 -216 -236 -256 0 -158 528 -34 930 219 80 50 186 162 262 276 36 55 114
192 173 305 137 261 187 347 252 425 101 123 185 165 369 186 191 21 444 -20
904 -146 378 -104 603 -160 745 -185 92 -17 162 -38 299 -92 256 -100 335
-113 411 -67 17 10 41 36 53 57 51 92 21 150 -186 353 -183 179 -198 202 -243
390 -53 223 -62 253 -101 330 -48 96 -195 317 -285 429 -136 170 -337 364
-518 502 -212 161 -610 404 -915 557 -891 450 -1638 601 -2543 516 -87 -9
-265 -29 -395 -46 -305 -39 -574 -49 -712 -25 -136 24 -220 51 -639 208 -386
144 -539 193 -713 229 -99 20 -307 33 -358 23z m3280 -665 c166 -15 342 -53
515 -110 180 -60 289 -116 366 -187 102 -94 113 -179 42 -314 -42 -81 -95
-122 -172 -135 -122 -19 -217 11 -303 98 -48 48 -58 63 -58 92 0 36 12 47 51
47 27 0 23 15 -11 40 -148 106 -545 145 -683 67 -40 -23 -53 -51 -43 -94 5
-18 57 -76 143 -159 79 -77 134 -137 131 -145 -9 -28 -137 -22 -311 12 -145
29 -180 33 -337 33 -231 0 -461 -37 -767 -124 -663 -188 -1458 -537 -2598
-1140 -596 -315 -805 -423 -810 -418 -12 11 999 746 1518 1103 545 375 993
653 1312 815 206 104 608 268 855 349 457 148 820 201 1160 170z m3392 -1704
c75 -8 122 -39 126 -84 7 -68 -43 -99 -107 -66 -28 14 -151 141 -151 155 0 5
17 6 38 4 20 -2 63 -6 94 -9z"/>
</g>
</svg>
