<?xml version="1.0" standalone="no"?>
<!DOCTYPE svg PUBLIC "-//W3C//DTD SVG 20010904//EN"
 "http://www.w3.org/TR/2001/REC-SVG-20010904/DTD/svg10.dtd">
<svg version="1.0" xmlns="http://www.w3.org/2000/svg"
 width="1280.000000pt" height="1084.000000pt" viewBox="0 0 1280.000000 1084.000000"
 preserveAspectRatio="xMidYMid meet">
<metadata>
Created by potrace 1.15, written by Peter Selinger 2001-2017
</metadata>
<g transform="translate(0.000000,1084.000000) scale(0.100000,-0.100000)"
fill="#009688" stroke="none">
<path fill="#228B22" d="M1520 10834 c-14 -2 -56 -9 -95 -15 -222 -35 -534 -160 -765 -305
-117 -75 -286 -203 -392 -299 -54 -48 -98 -88 -98 -89 0 0 120 -1 267 -1 227
0 280 -3 348 -19 165 -38 243 -88 354 -224 134 -167 212 -225 368 -276 52 -17
53 -17 171 13 171 43 309 57 422 42 196 -25 318 -85 552 -271 201 -160 284
-213 413 -261 l55 -20 29 20 c54 39 174 90 249 107 77 17 77 17 453 -2 70 -4
143 -4 163 0 l36 7 0 68 c0 185 -63 381 -177 554 -95 143 -312 327 -428 363
-215 65 -405 93 -531 76 -44 -6 -86 -14 -95 -17 -9 -3 -21 6 -33 25 -38 65
-138 180 -203 232 -171 138 -327 201 -657 264 -123 24 -344 39 -406 28z"/>
<path fill="#228B22" d="M6375 10774 c-242 -18 -459 -54 -675 -110 -171 -45 -627 -197 -701
-235 -279 -140 -586 -580 -680 -974 -17 -74 -42 -265 -35 -272 1 -2 44 15 95
37 168 73 347 126 541 161 49 9 156 14 310 14 210 0 246 -3 340 -23 58 -13
140 -38 183 -54 l78 -31 90 97 c106 112 178 170 281 225 116 62 187 82 318 88
140 7 241 -15 364 -77 43 -22 82 -38 86 -35 5 3 23 31 41 63 138 245 329 373
649 437 160 32 285 65 363 97 42 17 77 34 77 38 0 3 -39 38 -87 77 -306 246
-646 390 -1076 453 -127 19 -448 33 -562 24z"/>
<path fill="#228B22" d="M1505 9213 c-166 -14 -275 -36 -590 -117 -268 -70 -361 -119 -520
-280 -188 -190 -319 -452 -371 -741 -24 -134 -25 -407 -1 -559 10 -61 19 -111
20 -112 7 -8 160 74 216 115 60 45 248 229 382 375 77 83 193 174 268 209 130
61 254 33 399 -92 l72 -62 182 90 c292 143 470 192 698 192 173 0 292 -26 452
-99 l77 -34 93 87 c126 119 222 195 423 338 191 136 295 215 295 226 0 12
-280 158 -412 216 -413 178 -867 271 -1218 247 -58 -4 -139 -4 -180 -1 -81 7
-220 8 -285 2z"/>
<path fill="#228B22" d="M4685 9049 c-160 -15 -578 -89 -613 -108 -14 -8 169 -99 301 -151
122 -47 157 -68 225 -134 80 -76 169 -209 263 -391 40 -77 73 -141 73 -142 1
-1 41 14 88 33 329 132 521 85 674 -164 29 -46 47 -67 60 -66 11 1 69 21 129
44 200 77 357 97 476 60 100 -30 151 -69 344 -261 l181 -179 91 47 c81 41 100
47 173 51 78 4 84 3 153 -32 40 -20 128 -81 197 -137 69 -55 154 -118 190
-139 69 -41 229 -105 239 -95 3 4 -7 54 -21 113 -65 255 -249 525 -516 756
-223 192 -422 320 -700 451 -583 275 -992 404 -1417 445 -119 11 -464 11 -590
-1z"/>
<path fill="#8B4513" d="M3970 8633 c-139 -335 -417 -896 -855 -1728 -573 -1090 -850 -1666
-1105 -2300 -517 -1286 -768 -2412 -831 -3732 -11 -242 -9 -816 4 -829 3 -3
79 1 169 10 460 47 878 33 1113 -38 27 -9 50 -14 50 -13 1 1 -2 42 -6 92 -34
397 -43 624 -43 1115 0 501 5 663 39 1085 77 947 258 1943 541 2975 203 737
463 1514 870 2600 112 300 204 550 204 556 0 9 -107 275 -114 281 -2 2 -18
-32 -36 -74z"/>
<path  fill="#CDC5C2"
        stroke="black"
        stroke-width="50" d="M3522 5159 c3 -8 102 -234 219 -504 117 -269 400 -920 629 -1445
l415 -955 108 -3 c85 -2 107 -6 107 -17 0 -15 -29 -135 -150 -630 -39 -159
-75 -310 -81 -335 -5 -25 -12 -53 -15 -63 -5 -16 11 -17 278 -15 l283 3 28
515 c15 283 30 521 32 528 4 9 31 12 111 10 l107 -3 -2 -85 c-1 -47 -4 -104
-7 -127 l-6 -43 286 0 286 0 -5 23 c-9 43 -35 202 -35 220 0 15 14 17 150 17
l150 0 0 -32 c0 -18 -11 -233 -25 -478 -14 -245 -25 -462 -25 -482 l0 -38 280
0 c154 0 280 3 280 8 0 4 -38 232 -84 507 -46 275 -82 503 -79 508 2 4 89 7
194 7 182 0 189 1 189 20 0 15 22 31 91 66 50 25 93 44 95 42 2 -2 -1 -69 -6
-148 -5 -80 -10 -160 -10 -177 l0 -33 280 0 c217 0 280 3 280 13 0 6 -21 139
-46 295 -26 155 -45 284 -43 286 8 8 750 386 758 386 4 0 93 -196 197 -435
l189 -435 107 0 c60 0 108 -4 108 -9 0 -5 -56 -240 -125 -521 -69 -282 -125
-517 -125 -521 0 -5 126 -9 279 -9 l279 0 6 63 c3 34 15 233 26 442 11 209 23
419 26 468 l7 87 110 0 110 0 -7 -130 -7 -130 281 0 c260 0 280 1 280 18 0 9
-8 65 -19 124 -10 59 -16 110 -13 113 3 3 73 5 155 5 l149 0 -6 -77 c-3 -43
-15 -253 -26 -468 -11 -214 -22 -411 -24 -437 l-5 -48 284 0 285 0 -6 28 c-16
92 -164 982 -164 991 0 8 57 11 194 11 194 0 195 0 198 23 2 16 24 33 83 64
44 23 85 42 90 43 6 0 8 -36 4 -102 -4 -57 -7 -138 -8 -180 l-1 -78 280 0
c154 0 280 3 280 8 0 4 -22 138 -49 297 -27 160 -48 290 -47 291 0 1 175 89
387 197 l385 197 47 60 c26 33 47 63 47 67 0 4 -12 19 -27 35 -22 23 -24 30
-13 43 10 12 10 15 -1 15 -8 0 -77 9 -154 20 -77 11 -143 20 -147 20 -4 0 -8
126 -8 280 0 307 -1 314 -60 363 -62 53 -180 61 -370 26 -143 -26 -199 -47
-275 -104 -72 -54 -222 -201 -273 -267 -20 -26 -37 -47 -37 -45 -1 1 13 137
31 302 18 165 49 451 68 635 20 184 39 353 42 376 l6 41 -89 -13 c-450 -69
-760 -95 -1203 -101 -859 -13 -1525 82 -2370 337 -128 38 -235 68 -238 66 -2
-3 102 -247 231 -543 l234 -538 -96 -6 c-102 -6 -249 -32 -318 -56 -97 -33
-246 -156 -369 -304 -32 -38 -60 -65 -62 -60 -2 5 29 305 68 666 39 361 69
659 66 663 -3 3 -91 -7 -195 -22 -490 -70 -819 -90 -1330 -83 -784 11 -1358
102 -2153 343 -101 30 -192 57 -202 61 -13 4 -17 1 -14 -8z m4623 -1689 c-15
-142 -20 -170 -34 -170 -17 0 -325 35 -400 46 l-44 6 109 57 c113 60 256 149
333 207 24 19 46 32 49 30 2 -3 -4 -82 -13 -176z m230 -73 l64 -148 -27 5
c-15 3 -48 8 -74 12 l-48 6 1 157 c0 104 3 149 10 136 5 -11 38 -87 74 -168z
m3922 96 c-3 -21 -12 -100 -19 -175 -8 -96 -16 -138 -25 -138 -6 0 -107 11
-223 25 -116 14 -214 25 -218 25 -4 0 46 29 111 64 117 64 340 207 352 226 15
24 27 8 22 -27z"/>
</g>
</svg>
